<svg width="737.41138" xmlns="http://www.w3.org/2000/svg" height="954.64984">
<defs>
<linearGradient id="svg_21">
<stop offset="0" style="stop-color:#fff;stop-opacity:0" id="svg_39"/>
<stop offset="0.805556" style="stop-color:#fff;stop-opacity:0" id="svg_38"/>
<stop offset="1" style="stop-color:#b00000;stop-opacity:.735" id="svg_37"/>
</linearGradient>
<linearGradient id="svg_19" xlink:href="#svg_24" y1="500.36518" y2="500.36518" x1="364.95504" gradientUnits="userSpaceOnUse" x2="444.54435"/>
<linearGradient id="svg_24">
<stop offset="0" style="stop-color:#f00" id="svg_31"/>
<stop offset="0.888889" style="stop-color:#f30000" id="svg_30"/>
<stop offset="1" style="stop-color:#e70000" id="svg_29"/>
</linearGradient>
<linearGradient id="linearGradient3010" xlink:href="#linearGradient2856" y1="0.270143" y2="0.991308" x1="0.529801" x2="0.276434"/>
<linearGradient id="linearGradient2856">
<stop offset="0" style="stop-color:#782121" id="stop2858"/>
<stop offset="1" style="stop-color:#ff2a2a" id="stop2860"/>
</linearGradient>
<linearGradient id="linearGradient2902">
<stop offset="0" style="stop-color:#afe" id="stop2904"/>
<stop offset="1" style="stop-color:#afe;stop-opacity:0" id="stop2906"/>
</linearGradient>
<linearGradient id="linearGradient3008" xlink:href="#linearGradient2902" y1="0.162791" y2="1.007392" x1="0.520548" x2="0.520548"/>
<radialGradient fx="100" fy="100" cx="100" cy="100" r="100" id="svg_4" xlink:href="#svg_21" gradientUnits="userSpaceOnUse"/>
<symbol width="200" height="200" xmlns:xlink="http://www.w3.org/1999/xlink" id="svg_40">
<g id="svg_2" transform="translate(-278.00001,-354.36221)">
<path style="fill:url(#svg_19);fill-rule:evenodd;stroke-linejoin:round;stroke-width:1.231" id="svg_18" d="m 378,453.77 c 0,0 -13.747,8.51721 -12.3264,23.787 1.4187,15.2499 26.7171,39.5148 35.3298,50.7378 5.0759,6.61426 7.40527,13.4825 8.50696,18.0555 12.9182,-4.42883 24.5985,-11.5432 34.4184,-20.6163 -4.1629,-3.97968 -11.1664,-10.4412 -16.6667,-14.0625 -8.18213,-5.38702 -33.6162,-11.7432 -47.7864,-25.1302 -13.7805,-13.0187 -1.47568,-32.7714 -1.47568,-32.7714 z "/>
<path style="fill:#fff;stroke:#f00;stroke-linejoin:round;stroke-width:4" id="svg_17" d="m420,482.362183a70,70 0 1 1 -140,0a70,70 0 1 1 140,0z" transform="matrix(1.3888889,0,0,1.3888889,-108.1111,-215.58527)"/>
<path style="fill:#f00;fill-rule:evenodd;stroke-linejoin:round;stroke-width:1.231" id="svg_6" d="m 378,453.4614 c 0,0 -13.747,8.82581 -12.3264,24.0956 1.4187,15.2499 26.7171,39.5148 35.3298,50.7378 5.0759,6.61426 7.40527,13.4825 8.50696,18.0555 12.9182,-4.42883 24.5985,-11.5432 34.4184,-20.6163 -4.1629,-3.97968 -11.1664,-10.4412 -16.6667,-14.0625 -8.18213,-5.38702 -33.6162,-11.7432 -47.7864,-25.1302 -13.7805,-13.0187 -1.47568,-33.08 -1.47568,-33.08 z "/>
<path style="opacity:0;fill:#1900ff;stroke-linejoin:round;stroke-width:4" id="svg_16" d="m 93.178,199.5912 c -1.11117,-0.111816 -4.52043,-0.559113 -7.57614,-0.993973 -39.596,-5.63507 -72.5709,-35.4309 -82.276,-74.3438 -4.0223,-16.1276 -3.86703,-34.853 0.41663,-50.2447 4.78356,-17.1879 13.5682,-32.2628 25.8881,-44.4254 6.00735,-5.93066 9.00761,-8.39738 15.4196,-12.6776 26.2507,-17.5231 59.7784,-21.4047 89.544,-10.3666 23.8668,8.85058 43.4372,26.5434 54.9276,49.6577 11.7765,23.69 13.347,52.676 4.20729,77.653 -5.1454,14.0614 -12.7409,25.9724 -23.2879,36.5195 -15.0796,15.0796 -33.6713,24.6004 -54.7872,28.0566 -5.62333,0.92038 -18.3518,1.58032 -22.4759,1.16528 z  m 20.6889,-6.0685 c 4.73055,-0.691895 11.0267,-2.09431 14.8342,-3.30417 2.06369,-0.655746 1.98839,-1.17314 -1.12826,-7.75266 -2.57035,-5.42625 -4.84637,-8.4911 -15.0913,-20.3219 -9.64719,-11.1404 -13.823,-16.3456 -17.5347,-21.8572 -6.00246,-8.91313 -7.80843,-13.9042 -7.48428,-20.6838 0.274834,-5.74864 2.42162,-10.4726 6.96773,-15.3324 1.73621,-1.85603 3.01206,-3.37458 2.83522,-3.37458 -1.0341,0 -7.47394,3.36858 -9.80626,5.1295 -3.84073,2.89977 -5.40163,4.72124 -7.29057,8.50755 -1.56461,3.13631 -1.63734,3.54253 -1.62727,9.09137 0.016579,9.15843 2.40506,17.8055 9.99032,36.1684 5.88487,14.2464 6.50865,16.7073 7.21957,28.4814 0.196602,3.25639 0.596016,5.9848 0.90905,6.20995 0.737999,0.530777 10.8778,-0.035828 17.2066,-0.961487 h -1.5e-05 z  m -54.1576,-13.0174 c 2.96913,-7.01228 3.30648,-9.19554 5.19917,-33.6473 1.22126,-15.7775 2.31292,-22.8853 4.61562,-30.052 1.86123,-5.79277 2.9455,-7.67148 6.42471,-11.1321 4.66851,-4.64357 10.0674,-6.75846 17.4616,-6.8402 l 3.8082,-.0421 -2.6263,-1.2425 c -6.41213,-3.03357 -15.2382,-3.4692 -20.5955,-1.01656 -5.70256,2.61071 -12.1815,10.5335 -17.8178,21.7887 -1.39113,2.77792 -4.57838,9.94128 -7.08279,15.9186 -2.50442,5.97729 -5.07369,11.7731 -5.7095,12.8794 -1.5595,2.71372 -6.9667,9.67401 -10.377,13.3575 l -2.779,3.0016 1.072,1.4499 c 1.33905,1.81117 7.28314,7.1772 11.6168,10.4871 4.38705,3.35065 13.6589,8.8893 14.5802,8.70967 0.40575,-0.079117 1.39999,-1.70795 2.20942,-3.61961 l -0,0 z  m 109.0842,-15.5909 c 2.15578,-2.29179 5.4355,-6.24114 7.28833,-8.77634 3.77118,-5.1601 8.866,-13.7829 8.60547,-14.5644 -0.256729,-0.770233 -7.80051,-3.68835 -11.7551,-4.54718 -1.91823,-0.41658 -10.7608,-1.32864 -19.6502,-2.02681 -19.8231,-1.5569 -26.7912,-2.4931 -34.5977,-4.64839 -12.3671,-3.41443 -19.0975,-11.9466 -19.235,-24.3844 l -.0421,-3.8082 -1.2425,2.6262 c -3.03711,6.41961 -3.48945,15.194 -1.05718,20.5068 3.71427,8.113 15.9846,16.1992 38.4735,25.3542 12.4185,5.05543 16.9398,7.84183 25.2771,15.578 1.66675,1.54654 3.25215,2.82216 3.52312,2.83469 0.270981,0.012543 2.25647,-1.85233 4.41222,-4.1441 h -3.1e-05 z  m -152.3553,-37.7329 c 5.87286,-2.72237 8.00419,-4.29092 21.0291,-15.4763 17.167,-14.7424 24.5667,-20.0915 32.298,-23.3472 2.82346,-1.189 3.87806,-1.35161 8.76546,-1.35161 5.3413,0 5.70345,0.070503 9.37859,1.82565 2.4428,1.16661 5.04092,2.96518 7.19733,4.9824 1.85603,1.73622 3.37459,3.00216 3.37459,2.81321 0,-0.188965 -0.763367,-1.97647 -1.69637,-3.97225 -3.16974,-6.78037 -7.61393,-11.4486 -12.9508,-13.6037 -2.31681,-0.935555 -3.70014,-1.11482 -8.33375,-1.08003 -9.03532,0.067848 -16.3628,2.0837 -35.1028,9.657 -6.52811,2.63818 -12.8921,5.09412 -14.1421,5.45763 -3.25857,0.947586 -8.4908,1.66539 -15.026,2.06139 l -5.6821,.3443 v 6.30351 c 0,8.10925 1.60924,18.3958 4.10938,26.2679 0.62042,1.95348 0.68224,1.94544 6.78158,-0.88192 l 0,-0 z  m 119.4187,-7.7701 c 6.68645,-1.60758 13.2729,-3.90689 24.631,-8.59857 13.9222,-5.75084 16.4328,-6.37749 28.7809,-7.1836 l 5.177,-.338 -.0092,-5.8696 c -0.0121,-7.72675 -2.24158,-21.0467 -4.53038,-27.0667 l -.4846,-1.2746 -2.5378,1.0003 c -7.50827,2.95948 -10.6639,5.15902 -24.1241,16.8151 -11.1404,9.64719 -16.3456,13.823 -21.8572,17.5347 -8.91315,6.00247 -13.9042,7.80844 -20.6838,7.4843 -5.77995,-0.276337 -10.4676,-2.41721 -15.4062,-7.03609 -3.7991,-3.55318 -3.94363,-3.26015 -1.14948,2.33072 3.46395,6.93108 8.96629,11.874 14.8871,13.3737 3.12255,0.790894 11.5036,0.223465 17.3067,-1.17175 v 8e-06 z  m -9.9595,-17.1297 c 8.05631,-3.70885 15.3364,-14.5529 24.4327,-36.3936 6.26054,-15.0319 7.56314,-17.237 15.5406,-26.3072 l 3.5083,-3.9889 -4.0153,-3.8672 c -6.87889,-6.62523 -21.2448,-16.4974 -23.3893,-16.0729 -0.922363,0.18254 -3.38702,6.42128 -4.35538,11.0246 -0.42247,2.00844 -0.998856,6.40379 -1.28079,9.76744 -0.281952,3.36365 -0.951126,11.4569 -1.48708,17.985 -1.84413,22.4628 -4.39648,32.0491 -10.154,38.1368 -4.6052,4.86932 -8.86057,6.69965 -16.872,7.25702 l -5.0508,.3514 2.0203,.9076 c 7.0436,3.16419 15.7594,3.65976 21.1027,1.19988 h 1.5e-05 z  m -18.0723,-6.5675 c 5.8273,-2.91231 9.87367,-6.85164 12.3166,-11.9908 1.18914,-2.50158 1.31943,-3.35569 1.30996,-8.5863 -0.016594,-9.15844 -2.40509,-17.8055 -9.99033,-36.1684 -5.82699,-14.1063 -6.45813,-16.5851 -7.2195,-28.3551 l -.3349,-5.177 h -5.22087 c -6.61842,0 -15.005,1.1448 -22.3761,3.05442 -3.16597,0.8202 -5.83656,1.49127 -5.93465,1.49127 -1.02988,0 2.54596,8.18676 5.47668,12.5386 0.972641,1.44429 6.29166,7.89311 11.82,14.3307 14.7424,17.167 20.0915,24.5667 23.3472,32.298 1.18898,2.82346 1.35161,3.87807 1.35161,8.76546 0,5.3413 -0.070503,5.70345 -1.82565,9.37859 -1.17876,2.46819 -2.96843,5.04464 -5.05076,7.2711 -3.5532,3.79911 -3.26015,3.94363 2.33072,1.14947 z  m -4.9902,-4.1621 c 1.17582,-3.41504 1.39611,-4.90075 1.42294,-9.59644 0.028709,-5.02211 -0.099693,-5.83635 -1.33649,-8.4758 -3.81356,-8.13854 -15.5426,-15.9151 -37.5226,-24.8782 -13.4118,-5.46913 -15.4444,-6.66002 -23.9455,-14.0297 l -5.2576,-4.5579 -4.1017,4.2525 c -2.25596,2.33891 -5.56414,6.17837 -7.35152,8.53216 -3.55211,4.67774 -9.09368,13.5007 -9.09368,14.4784 0,0.723629 6.72514,3.40626 11.2352,4.48167 1.73771,0.414341 10.4326,1.32122 19.3219,2.01526 17.8222,1.39148 25.1107,2.26981 31.5673,3.80419 9.35059,2.22212 14.2323,4.98682 18.3041,10.3663 2.67117,3.52904 3.96268,7.59819 4.28901,13.5132 0.150391,2.72604 0.454361,4.7716 0.675484,4.54568 0.221107,-0.225906 1.02807,-2.22903 1.79323,-4.45137 h -2.3e-05 z " transform="translate(278.00001,354.36221)"/>
<path style="opacity:0;fill:#1900ff;stroke-linejoin:round;stroke-width:4" id="svg_15" d="m 93.178,199.5912 c -1.11117,-0.111816 -4.52043,-0.559113 -7.57614,-0.993973 -39.596,-5.63507 -72.5709,-35.4309 -82.276,-74.3438 -4.0223,-16.1276 -3.86703,-34.853 0.41663,-50.2447 4.78356,-17.1879 13.5682,-32.2628 25.8881,-44.4254 6.00735,-5.93066 9.00761,-8.39738 15.4196,-12.6776 26.2507,-17.5231 59.7784,-21.4047 89.544,-10.3666 23.8668,8.85058 43.4372,26.5434 54.9276,49.6577 11.7765,23.69 13.347,52.676 4.20729,77.653 -5.1454,14.0614 -12.7409,25.9724 -23.2879,36.5195 -15.0796,15.0796 -33.6713,24.6004 -54.7872,28.0566 -5.62333,0.92038 -18.3518,1.58032 -22.4759,1.16528 z  m 20.6889,-6.0685 c 4.73055,-0.691895 11.0267,-2.09431 14.8342,-3.30417 2.06369,-0.655746 1.98839,-1.17314 -1.12826,-7.75266 -2.57035,-5.42625 -4.84637,-8.4911 -15.0913,-20.3219 -9.64719,-11.1404 -13.823,-16.3456 -17.5347,-21.8572 -6.00246,-8.91313 -7.80843,-13.9042 -7.48428,-20.6838 0.274834,-5.74864 2.42162,-10.4726 6.96773,-15.3324 1.73621,-1.85603 3.01206,-3.37458 2.83522,-3.37458 -1.0341,0 -7.47394,3.36858 -9.80626,5.1295 -3.84073,2.89977 -5.40163,4.72124 -7.29057,8.50755 -1.56461,3.13631 -1.63734,3.54253 -1.62727,9.09137 0.016579,9.15843 2.40506,17.8055 9.99032,36.1684 5.88487,14.2464 6.50865,16.7073 7.21957,28.4814 0.196602,3.25639 0.596016,5.9848 0.90905,6.20995 0.737999,0.530777 10.8778,-0.035828 17.2066,-0.961487 h -1.5e-05 z  m -54.1576,-13.0174 c 2.96913,-7.01228 3.30648,-9.19554 5.19917,-33.6473 1.22126,-15.7775 2.31292,-22.8853 4.61562,-30.052 1.86123,-5.79277 2.9455,-7.67148 6.42471,-11.1321 4.66851,-4.64357 10.0674,-6.75846 17.4616,-6.8402 l 3.8082,-.0421 -2.6263,-1.2425 c -6.41213,-3.03357 -15.2382,-3.4692 -20.5955,-1.01656 -5.70256,2.61071 -12.1815,10.5335 -17.8178,21.7887 -1.39113,2.77792 -4.57838,9.94128 -7.08279,15.9186 -2.50442,5.97729 -5.07369,11.7731 -5.7095,12.8794 -1.5595,2.71372 -6.9667,9.67401 -10.377,13.3575 l -2.779,3.0016 1.072,1.4499 c 1.33905,1.81117 7.28314,7.1772 11.6168,10.4871 4.38705,3.35065 13.6589,8.8893 14.5802,8.70967 0.40575,-0.079117 1.39999,-1.70795 2.20942,-3.61961 l -0,0 z  m 109.0842,-15.5909 c 2.15578,-2.29179 5.4355,-6.24114 7.28833,-8.77634 3.77118,-5.1601 8.866,-13.7829 8.60547,-14.5644 -0.256729,-0.770233 -7.80051,-3.68835 -11.7551,-4.54718 -1.91823,-0.41658 -10.7608,-1.32864 -19.6502,-2.02681 -19.8231,-1.5569 -26.7912,-2.4931 -34.5977,-4.64839 -12.3671,-3.41443 -19.0975,-11.9466 -19.235,-24.3844 l -.0421,-3.8082 -1.2425,2.6262 c -3.03711,6.41961 -3.48945,15.194 -1.05718,20.5068 3.71427,8.113 15.9846,16.1992 38.4735,25.3542 12.4185,5.05543 16.9398,7.84183 25.2771,15.578 1.66675,1.54654 3.25215,2.82216 3.52312,2.83469 0.270981,0.012543 2.25647,-1.85233 4.41222,-4.1441 h -3.1e-05 z  m -152.3553,-37.7329 c 5.87286,-2.72237 8.00419,-4.29092 21.0291,-15.4763 17.167,-14.7424 24.5667,-20.0915 32.298,-23.3472 2.82346,-1.189 3.87806,-1.35161 8.76546,-1.35161 5.3413,0 5.70345,0.070503 9.37859,1.82565 2.4428,1.16661 5.04092,2.96518 7.19733,4.9824 1.85603,1.73622 3.37459,3.00216 3.37459,2.81321 0,-0.188965 -0.763367,-1.97647 -1.69637,-3.97225 -3.16974,-6.78037 -7.61393,-11.4486 -12.9508,-13.6037 -2.31681,-0.935555 -3.70014,-1.11482 -8.33375,-1.08003 -9.03532,0.067848 -16.3628,2.0837 -35.1028,9.657 -6.52811,2.63818 -12.8921,5.09412 -14.1421,5.45763 -3.25857,0.947586 -8.4908,1.66539 -15.026,2.06139 l -5.6821,.3443 v 6.30351 c 0,8.10925 1.60924,18.3958 4.10938,26.2679 0.62042,1.95348 0.68224,1.94544 6.78158,-0.88192 l 0,-0 z  m 119.4187,-7.7701 c 6.68645,-1.60758 13.2729,-3.90689 24.631,-8.59857 13.9222,-5.75084 16.4328,-6.37749 28.7809,-7.1836 l 5.177,-.338 -.0092,-5.8696 c -0.0121,-7.72675 -2.24158,-21.0467 -4.53038,-27.0667 l -.4846,-1.2746 -2.5378,1.0003 c -7.50827,2.95948 -10.6639,5.15902 -24.1241,16.8151 -11.1404,9.64719 -16.3456,13.823 -21.8572,17.5347 -8.91315,6.00247 -13.9042,7.80844 -20.6838,7.4843 -5.77995,-0.276337 -10.4676,-2.41721 -15.4062,-7.03609 -3.7991,-3.55318 -3.94363,-3.26015 -1.14948,2.33072 3.46395,6.93108 8.96629,11.874 14.8871,13.3737 3.12255,0.790894 11.5036,0.223465 17.3067,-1.17175 v 8e-06 z  m -9.9595,-17.1297 c 8.05631,-3.70885 15.3364,-14.5529 24.4327,-36.3936 6.26054,-15.0319 7.56314,-17.237 15.5406,-26.3072 l 3.5083,-3.9889 -4.0153,-3.8672 c -6.87889,-6.62523 -21.2448,-16.4974 -23.3893,-16.0729 -0.922363,0.18254 -3.38702,6.42128 -4.35538,11.0246 -0.42247,2.00844 -0.998856,6.40379 -1.28079,9.76744 -0.281952,3.36365 -0.951126,11.4569 -1.48708,17.985 -1.84413,22.4628 -4.39648,32.0491 -10.154,38.1368 -4.6052,4.86932 -8.86057,6.69965 -16.872,7.25702 l -5.0508,.3514 2.0203,.9076 c 7.0436,3.16419 15.7594,3.65976 21.1027,1.19988 h 1.5e-05 z  m -18.0723,-6.5675 c 5.8273,-2.91231 9.87367,-6.85164 12.3166,-11.9908 1.18914,-2.50158 1.31943,-3.35569 1.30996,-8.5863 -0.016594,-9.15844 -2.40509,-17.8055 -9.99033,-36.1684 -5.82699,-14.1063 -6.45813,-16.5851 -7.2195,-28.3551 l -.3349,-5.177 h -5.22087 c -6.61842,0 -15.005,1.1448 -22.3761,3.05442 -3.16597,0.8202 -5.83656,1.49127 -5.93465,1.49127 -1.02988,0 2.54596,8.18676 5.47668,12.5386 0.972641,1.44429 6.29166,7.89311 11.82,14.3307 14.7424,17.167 20.0915,24.5667 23.3472,32.298 1.18898,2.82346 1.35161,3.87807 1.35161,8.76546 0,5.3413 -0.070503,5.70345 -1.82565,9.37859 -1.17876,2.46819 -2.96843,5.04464 -5.05076,7.2711 -3.5532,3.79911 -3.26015,3.94363 2.33072,1.14947 z  m -4.9902,-4.1621 c 1.17582,-3.41504 1.39611,-4.90075 1.42294,-9.59644 0.028709,-5.02211 -0.099693,-5.83635 -1.33649,-8.4758 -3.81356,-8.13854 -15.5426,-15.9151 -37.5226,-24.8782 -13.4118,-5.46913 -15.4444,-6.66002 -23.9455,-14.0297 l -5.2576,-4.5579 -4.1017,4.2525 c -2.25596,2.33891 -5.56414,6.17837 -7.35152,8.53216 -3.55211,4.67774 -9.09368,13.5007 -9.09368,14.4784 0,0.723629 6.72514,3.40626 11.2352,4.48167 1.73771,0.414341 10.4326,1.32122 19.3219,2.01526 17.8222,1.39148 25.1107,2.26981 31.5673,3.80419 9.35059,2.22212 14.2323,4.98682 18.3041,10.3663 2.67117,3.52904 3.96268,7.59819 4.28901,13.5132 0.150391,2.72604 0.454361,4.7716 0.675484,4.54568 0.221107,-0.225906 1.02807,-2.22903 1.79323,-4.45137 h -2.3e-05 z " transform="translate(278.00001,354.36221)"/>
<path style="opacity:0;fill:#1900ff;stroke-linejoin:round;stroke-width:4" id="svg_14" d="m 93.178,199.5912 c -1.11117,-0.111816 -4.52043,-0.559113 -7.57614,-0.993973 -39.596,-5.63507 -72.5709,-35.4309 -82.276,-74.3438 -4.0223,-16.1276 -3.86703,-34.853 0.41663,-50.2447 4.78356,-17.1879 13.5682,-32.2628 25.8881,-44.4254 6.00735,-5.93066 9.00761,-8.39738 15.4196,-12.6776 26.2507,-17.5231 59.7784,-21.4047 89.544,-10.3666 23.8668,8.85058 43.4372,26.5434 54.9276,49.6577 11.7765,23.69 13.347,52.676 4.20729,77.653 -5.1454,14.0614 -12.7409,25.9724 -23.2879,36.5195 -15.0796,15.0796 -33.6713,24.6004 -54.7872,28.0566 -5.62333,0.92038 -18.3518,1.58032 -22.4759,1.16528 z  m 20.6889,-6.0685 c 4.73055,-0.691895 11.0267,-2.09431 14.8342,-3.30417 2.06369,-0.655746 1.98839,-1.17314 -1.12826,-7.75266 -2.57035,-5.42625 -4.84637,-8.4911 -15.0913,-20.3219 -9.64719,-11.1404 -13.823,-16.3456 -17.5347,-21.8572 -6.00246,-8.91313 -7.80843,-13.9042 -7.48428,-20.6838 0.274834,-5.74864 2.42162,-10.4726 6.96773,-15.3324 1.73621,-1.85603 3.01206,-3.37458 2.83522,-3.37458 -1.0341,0 -7.47394,3.36858 -9.80626,5.1295 -3.84073,2.89977 -5.40163,4.72124 -7.29057,8.50755 -1.56461,3.13631 -1.63734,3.54253 -1.62727,9.09137 0.016579,9.15843 2.40506,17.8055 9.99032,36.1684 5.88487,14.2464 6.50865,16.7073 7.21957,28.4814 0.196602,3.25639 0.596016,5.9848 0.90905,6.20995 0.737999,0.530777 10.8778,-0.035828 17.2066,-0.961487 h -1.5e-05 z  m -54.1576,-13.0174 c 2.96913,-7.01228 3.30648,-9.19554 5.19917,-33.6473 1.22126,-15.7775 2.31292,-22.8853 4.61562,-30.052 1.86123,-5.79277 2.9455,-7.67148 6.42471,-11.1321 4.66851,-4.64357 10.0674,-6.75846 17.4616,-6.8402 l 3.8082,-.0421 -2.6263,-1.2425 c -6.41213,-3.03357 -15.2382,-3.4692 -20.5955,-1.01656 -5.70256,2.61071 -12.1815,10.5335 -17.8178,21.7887 -1.39113,2.77792 -4.57838,9.94128 -7.08279,15.9186 -2.50442,5.97729 -5.07369,11.7731 -5.7095,12.8794 -1.5595,2.71372 -6.9667,9.67401 -10.377,13.3575 l -2.779,3.0016 1.072,1.4499 c 1.33905,1.81117 7.28314,7.1772 11.6168,10.4871 4.38705,3.35065 13.6589,8.8893 14.5802,8.70967 0.40575,-0.079117 1.39999,-1.70795 2.20942,-3.61961 l -0,0 z  m 109.0842,-15.5909 c 2.15578,-2.29179 5.4355,-6.24114 7.28833,-8.77634 3.77118,-5.1601 8.866,-13.7829 8.60547,-14.5644 -0.256729,-0.770233 -7.80051,-3.68835 -11.7551,-4.54718 -1.91823,-0.41658 -10.7608,-1.32864 -19.6502,-2.02681 -19.8231,-1.5569 -26.7912,-2.4931 -34.5977,-4.64839 -12.3671,-3.41443 -19.0975,-11.9466 -19.235,-24.3844 l -.0421,-3.8082 -1.2425,2.6262 c -3.03711,6.41961 -3.48945,15.194 -1.05718,20.5068 3.71427,8.113 15.9846,16.1992 38.4735,25.3542 12.4185,5.05543 16.9398,7.84183 25.2771,15.578 1.66675,1.54654 3.25215,2.82216 3.52312,2.83469 0.270981,0.012543 2.25647,-1.85233 4.41222,-4.1441 h -3.1e-05 z  m -152.3553,-37.7329 c 5.87286,-2.72237 8.00419,-4.29092 21.0291,-15.4763 17.167,-14.7424 24.5667,-20.0915 32.298,-23.3472 2.82346,-1.189 3.87806,-1.35161 8.76546,-1.35161 5.3413,0 5.70345,0.070503 9.37859,1.82565 2.4428,1.16661 5.04092,2.96518 7.19733,4.9824 1.85603,1.73622 3.37459,3.00216 3.37459,2.81321 0,-0.188965 -0.763367,-1.97647 -1.69637,-3.97225 -3.16974,-6.78037 -7.61393,-11.4486 -12.9508,-13.6037 -2.31681,-0.935555 -3.70014,-1.11482 -8.33375,-1.08003 -9.03532,0.067848 -16.3628,2.0837 -35.1028,9.657 -6.52811,2.63818 -12.8921,5.09412 -14.1421,5.45763 -3.25857,0.947586 -8.4908,1.66539 -15.026,2.06139 l -5.6821,.3443 v 6.30351 c 0,8.10925 1.60924,18.3958 4.10938,26.2679 0.62042,1.95348 0.68224,1.94544 6.78158,-0.88192 l 0,-0 z  m 119.4187,-7.7701 c 6.68645,-1.60758 13.2729,-3.90689 24.631,-8.59857 13.9222,-5.75084 16.4328,-6.37749 28.7809,-7.1836 l 5.177,-.338 -.0092,-5.8696 c -0.0121,-7.72675 -2.24158,-21.0467 -4.53038,-27.0667 l -.4846,-1.2746 -2.5378,1.0003 c -7.50827,2.95948 -10.6639,5.15902 -24.1241,16.8151 -11.1404,9.64719 -16.3456,13.823 -21.8572,17.5347 -8.91315,6.00247 -13.9042,7.80844 -20.6838,7.4843 -5.77995,-0.276337 -10.4676,-2.41721 -15.4062,-7.03609 -3.7991,-3.55318 -3.94363,-3.26015 -1.14948,2.33072 3.46395,6.93108 8.96629,11.874 14.8871,13.3737 3.12255,0.790894 11.5036,0.223465 17.3067,-1.17175 v 8e-06 z  m -9.9595,-17.1297 c 8.05631,-3.70885 15.3364,-14.5529 24.4327,-36.3936 6.26054,-15.0319 7.56314,-17.237 15.5406,-26.3072 l 3.5083,-3.9889 -4.0153,-3.8672 c -6.87889,-6.62523 -21.2448,-16.4974 -23.3893,-16.0729 -0.922363,0.18254 -3.38702,6.42128 -4.35538,11.0246 -0.42247,2.00844 -0.998856,6.40379 -1.28079,9.76744 -0.281952,3.36365 -0.951126,11.4569 -1.48708,17.985 -1.84413,22.4628 -4.39648,32.0491 -10.154,38.1368 -4.6052,4.86932 -8.86057,6.69965 -16.872,7.25702 l -5.0508,.3514 2.0203,.9076 c 7.0436,3.16419 15.7594,3.65976 21.1027,1.19988 h 1.5e-05 z  m -18.0723,-6.5675 c 5.8273,-2.91231 9.87367,-6.85164 12.3166,-11.9908 1.18914,-2.50158 1.31943,-3.35569 1.30996,-8.5863 -0.016594,-9.15844 -2.40509,-17.8055 -9.99033,-36.1684 -5.82699,-14.1063 -6.45813,-16.5851 -7.2195,-28.3551 l -.3349,-5.177 h -5.22087 c -6.61842,0 -15.005,1.1448 -22.3761,3.05442 -3.16597,0.8202 -5.83656,1.49127 -5.93465,1.49127 -1.02988,0 2.54596,8.18676 5.47668,12.5386 0.972641,1.44429 6.29166,7.89311 11.82,14.3307 14.7424,17.167 20.0915,24.5667 23.3472,32.298 1.18898,2.82346 1.35161,3.87807 1.35161,8.76546 0,5.3413 -0.070503,5.70345 -1.82565,9.37859 -1.17876,2.46819 -2.96843,5.04464 -5.05076,7.2711 -3.5532,3.79911 -3.26015,3.94363 2.33072,1.14947 z  m -4.9902,-4.1621 c 1.17582,-3.41504 1.39611,-4.90075 1.42294,-9.59644 0.028709,-5.02211 -0.099693,-5.83635 -1.33649,-8.4758 -3.81356,-8.13854 -15.5426,-15.9151 -37.5226,-24.8782 -13.4118,-5.46913 -15.4444,-6.66002 -23.9455,-14.0297 l -5.2576,-4.5579 -4.1017,4.2525 c -2.25596,2.33891 -5.56414,6.17837 -7.35152,8.53216 -3.55211,4.67774 -9.09368,13.5007 -9.09368,14.4784 0,0.723629 6.72514,3.40626 11.2352,4.48167 1.73771,0.414341 10.4326,1.32122 19.3219,2.01526 17.8222,1.39148 25.1107,2.26981 31.5673,3.80419 9.35059,2.22212 14.2323,4.98682 18.3041,10.3663 2.67117,3.52904 3.96268,7.59819 4.28901,13.5132 0.150391,2.72604 0.454361,4.7716 0.675484,4.54568 0.221107,-0.225906 1.02807,-2.22903 1.79323,-4.45137 h -2.3e-05 z " transform="translate(278.00001,354.36221)"/>
<path style="opacity:0;fill:#1900ff;stroke-linejoin:round;stroke-width:4" id="svg_13" d="m 93.178,199.5912 c -1.11117,-0.111816 -4.52043,-0.559113 -7.57614,-0.993973 -39.596,-5.63507 -72.5709,-35.4309 -82.276,-74.3438 -4.0223,-16.1276 -3.86703,-34.853 0.41663,-50.2447 4.78356,-17.1879 13.5682,-32.2628 25.8881,-44.4254 6.00735,-5.93066 9.00761,-8.39738 15.4196,-12.6776 26.2507,-17.5231 59.7784,-21.4047 89.544,-10.3666 23.8668,8.85058 43.4372,26.5434 54.9276,49.6577 11.7765,23.69 13.347,52.676 4.20729,77.653 -5.1454,14.0614 -12.7409,25.9724 -23.2879,36.5195 -15.0796,15.0796 -33.6713,24.6004 -54.7872,28.0566 -5.62333,0.92038 -18.3518,1.58032 -22.4759,1.16528 z  m 20.6889,-6.0685 c 4.73055,-0.691895 11.0267,-2.09431 14.8342,-3.30417 2.06369,-0.655746 1.98839,-1.17314 -1.12826,-7.75266 -2.57035,-5.42625 -4.84637,-8.4911 -15.0913,-20.3219 -9.64719,-11.1404 -13.823,-16.3456 -17.5347,-21.8572 -6.00246,-8.91313 -7.80843,-13.9042 -7.48428,-20.6838 0.274834,-5.74864 2.42162,-10.4726 6.96773,-15.3324 1.73621,-1.85603 3.01206,-3.37458 2.83522,-3.37458 -1.0341,0 -7.47394,3.36858 -9.80626,5.1295 -3.84073,2.89977 -5.40163,4.72124 -7.29057,8.50755 -1.56461,3.13631 -1.63734,3.54253 -1.62727,9.09137 0.016579,9.15843 2.40506,17.8055 9.99032,36.1684 5.88487,14.2464 6.50865,16.7073 7.21957,28.4814 0.196602,3.25639 0.596016,5.9848 0.90905,6.20995 0.737999,0.530777 10.8778,-0.035828 17.2066,-0.961487 h -1.5e-05 z  m -54.1576,-13.0174 c 2.96913,-7.01228 3.30648,-9.19554 5.19917,-33.6473 1.22126,-15.7775 2.31292,-22.8853 4.61562,-30.052 1.86123,-5.79277 2.9455,-7.67148 6.42471,-11.1321 4.66851,-4.64357 10.0674,-6.75846 17.4616,-6.8402 l 3.8082,-.0421 -2.6263,-1.2425 c -6.41213,-3.03357 -15.2382,-3.4692 -20.5955,-1.01656 -5.70256,2.61071 -12.1815,10.5335 -17.8178,21.7887 -1.39113,2.77792 -4.57838,9.94128 -7.08279,15.9186 -2.50442,5.97729 -5.07369,11.7731 -5.7095,12.8794 -1.5595,2.71372 -6.9667,9.67401 -10.377,13.3575 l -2.779,3.0016 1.072,1.4499 c 1.33905,1.81117 7.28314,7.1772 11.6168,10.4871 4.38705,3.35065 13.6589,8.8893 14.5802,8.70967 0.40575,-0.079117 1.39999,-1.70795 2.20942,-3.61961 l -0,0 z  m 109.0842,-15.5909 c 2.15578,-2.29179 5.4355,-6.24114 7.28833,-8.77634 3.77118,-5.1601 8.866,-13.7829 8.60547,-14.5644 -0.256729,-0.770233 -7.80051,-3.68835 -11.7551,-4.54718 -1.91823,-0.41658 -10.7608,-1.32864 -19.6502,-2.02681 -19.8231,-1.5569 -26.7912,-2.4931 -34.5977,-4.64839 -12.3671,-3.41443 -19.0975,-11.9466 -19.235,-24.3844 l -.0421,-3.8082 -1.2425,2.6262 c -3.03711,6.41961 -3.48945,15.194 -1.05718,20.5068 3.71427,8.113 15.9846,16.1992 38.4735,25.3542 12.4185,5.05543 16.9398,7.84183 25.2771,15.578 1.66675,1.54654 3.25215,2.82216 3.52312,2.83469 0.270981,0.012543 2.25647,-1.85233 4.41222,-4.1441 h -3.1e-05 z  m -152.3553,-37.7329 c 5.87286,-2.72237 8.00419,-4.29092 21.0291,-15.4763 17.167,-14.7424 24.5667,-20.0915 32.298,-23.3472 2.82346,-1.189 3.87806,-1.35161 8.76546,-1.35161 5.3413,0 5.70345,0.070503 9.37859,1.82565 2.4428,1.16661 5.04092,2.96518 7.19733,4.9824 1.85603,1.73622 3.37459,3.00216 3.37459,2.81321 0,-0.188965 -0.763367,-1.97647 -1.69637,-3.97225 -3.16974,-6.78037 -7.61393,-11.4486 -12.9508,-13.6037 -2.31681,-0.935555 -3.70014,-1.11482 -8.33375,-1.08003 -9.03532,0.067848 -16.3628,2.0837 -35.1028,9.657 -6.52811,2.63818 -12.8921,5.09412 -14.1421,5.45763 -3.25857,0.947586 -8.4908,1.66539 -15.026,2.06139 l -5.6821,.3443 v 6.30351 c 0,8.10925 1.60924,18.3958 4.10938,26.2679 0.62042,1.95348 0.68224,1.94544 6.78158,-0.88192 l 0,-0 z  m 119.4187,-7.7701 c 6.68645,-1.60758 13.2729,-3.90689 24.631,-8.59857 13.9222,-5.75084 16.4328,-6.37749 28.7809,-7.1836 l 5.177,-.338 -.0092,-5.8696 c -0.0121,-7.72675 -2.24158,-21.0467 -4.53038,-27.0667 l -.4846,-1.2746 -2.5378,1.0003 c -7.50827,2.95948 -10.6639,5.15902 -24.1241,16.8151 -11.1404,9.64719 -16.3456,13.823 -21.8572,17.5347 -8.91315,6.00247 -13.9042,7.80844 -20.6838,7.4843 -5.77995,-0.276337 -10.4676,-2.41721 -15.4062,-7.03609 -3.7991,-3.55318 -3.94363,-3.26015 -1.14948,2.33072 3.46395,6.93108 8.96629,11.874 14.8871,13.3737 3.12255,0.790894 11.5036,0.223465 17.3067,-1.17175 v 8e-06 z  m -9.9595,-17.1297 c 8.05631,-3.70885 15.3364,-14.5529 24.4327,-36.3936 6.26054,-15.0319 7.56314,-17.237 15.5406,-26.3072 l 3.5083,-3.9889 -4.0153,-3.8672 c -6.87889,-6.62523 -21.2448,-16.4974 -23.3893,-16.0729 -0.922363,0.18254 -3.38702,6.42128 -4.35538,11.0246 -0.42247,2.00844 -0.998856,6.40379 -1.28079,9.76744 -0.281952,3.36365 -0.951126,11.4569 -1.48708,17.985 -1.84413,22.4628 -4.39648,32.0491 -10.154,38.1368 -4.6052,4.86932 -8.86057,6.69965 -16.872,7.25702 l -5.0508,.3514 2.0203,.9076 c 7.0436,3.16419 15.7594,3.65976 21.1027,1.19988 h 1.5e-05 z  m -18.0723,-6.5675 c 5.8273,-2.91231 9.87367,-6.85164 12.3166,-11.9908 1.18914,-2.50158 1.31943,-3.35569 1.30996,-8.5863 -0.016594,-9.15844 -2.40509,-17.8055 -9.99033,-36.1684 -5.82699,-14.1063 -6.45813,-16.5851 -7.2195,-28.3551 l -.3349,-5.177 h -5.22087 c -6.61842,0 -15.005,1.1448 -22.3761,3.05442 -3.16597,0.8202 -5.83656,1.49127 -5.93465,1.49127 -1.02988,0 2.54596,8.18676 5.47668,12.5386 0.972641,1.44429 6.29166,7.89311 11.82,14.3307 14.7424,17.167 20.0915,24.5667 23.3472,32.298 1.18898,2.82346 1.35161,3.87807 1.35161,8.76546 0,5.3413 -0.070503,5.70345 -1.82565,9.37859 -1.17876,2.46819 -2.96843,5.04464 -5.05076,7.2711 -3.5532,3.79911 -3.26015,3.94363 2.33072,1.14947 z  m -4.9902,-4.1621 c 1.17582,-3.41504 1.39611,-4.90075 1.42294,-9.59644 0.028709,-5.02211 -0.099693,-5.83635 -1.33649,-8.4758 -3.81356,-8.13854 -15.5426,-15.9151 -37.5226,-24.8782 -13.4118,-5.46913 -15.4444,-6.66002 -23.9455,-14.0297 l -5.2576,-4.5579 -4.1017,4.2525 c -2.25596,2.33891 -5.56414,6.17837 -7.35152,8.53216 -3.55211,4.67774 -9.09368,13.5007 -9.09368,14.4784 0,0.723629 6.72514,3.40626 11.2352,4.48167 1.73771,0.414341 10.4326,1.32122 19.3219,2.01526 17.8222,1.39148 25.1107,2.26981 31.5673,3.80419 9.35059,2.22212 14.2323,4.98682 18.3041,10.3663 2.67117,3.52904 3.96268,7.59819 4.28901,13.5132 0.150391,2.72604 0.454361,4.7716 0.675484,4.54568 0.221107,-0.225906 1.02807,-2.22903 1.79323,-4.45137 h -2.3e-05 z " transform="translate(278.00001,354.36221)"/>
<use width="200" x="0" y="0" height="200" id="svg_12" xlink:href="#svg_6" transform="matrix(0.7071068,0.7071068,-0.7071068,0.7071068,431.35786,-134.47115)"/>
<use width="200" x="0" y="0" height="200" id="svg_11" xlink:href="#svg_6" transform="matrix(0,1,-1,0,831.45939,75.459456)"/>
<use width="200" x="0" y="0" height="200" id="svg_10" xlink:href="#svg_6" transform="matrix(-0.7071068,0.7071068,-0.7071068,-0.7071068,965.93054,506.81732)"/>
<use width="200" x="0" y="0" height="200" id="svg_9" xlink:href="#svg_6" transform="matrix(-1,0,0,-1,755.99993,906.91885)"/>
<use width="200" x="0" y="0" height="200" id="svg_8" xlink:href="#svg_6" transform="matrix(-0.7071068,-0.7071068,0.7071068,-0.7071068,324.64207,1041.39)"/>
<use width="200" x="0" y="0" height="200" id="svg_7" xlink:href="#svg_6" transform="matrix(0,-1,1,0,-75.459456,831.45939)"/>
<use width="200" x="0" y="0" height="200" id="svg_5" xlink:href="#svg_6" transform="matrix(0.7071068,-0.7071068,0.7071068,0.7071068,-209.93061,400.10153)"/>
<path style="fill:url(#svg_4);stroke-linejoin:round;stroke-width:4" id="svg_3" d="m200,100a100,100 0 1 1 -200,0a100,100 0 1 1 200,0z" transform="translate(278.00001,354.36221)"/>
</g>
</symbol>
</defs>
<g>
<path style="fill:url(#linearGradient3008)" id="path2892" d="m 0,807.973 c 28.2843,-8.14874 90.9137,-28.5205 151.523,-26.4833 60.6091,2.03717 90.9137,30.5577 121.218,26.4833 30.3046,-4.07434 30.3046,-22.409 52.5279,-24.4462 22.2234,-2.03717 50.5076,20.3718 76.7716,20.3718 26.264,0 30.3046,-24.4462 90.9137,-24.4462 60.6092,0 58.5888,32.5948 101.015,42.7808 42.4264,10.1859 28.2842,-30.5577 80.8122,-36.6693 52.5279,-6.11151 60.6091,14.2603 60.6091,14.2603 l 2.0203,154.8256 h -737.411 v -146.677 h 3e-05 z "/>
<path style="fill:#a05a2c" id="path2879" d="m 476.7962,568.8423 c 18.5714,11.524 40,37.4531 48.5714,59.0605 8.57141,21.6075 20,33.1316 20,33.1316 0,0 -34.2857,46.0961 -41.4286,70.5847 -7.14285,24.4885 -8.57141,70.8727 -8.57141,70.8727 l 15.7143,-1.4405 c 0,0 -2.85718,-62.2297 14.2857,-82.3968 17.1428,-20.167 47.1428,-47.5365 47.1428,-47.5365 0,0 -14.2857,-37.4531 -14.2857,-54.7391 0,-17.286 17.1429,-50.4175 17.1429,-50.4175 0,0 -24.2857,-67.7036 -98.5714,2.88098 z "/>
<path style="fill:#d38d5f" id="path2868" d="m 323.9391,228.8922 l -34.2812,21.585 c 0,0 -15.0628,235.386 12.8438,319.805 3.54367,10.7198 7.74268,19.4017 12.5312,26.3747 5.45309,19.426 14.625,56.2073 14.625,84.544 0,40.334 -1.4375,128.218 -1.4375,128.218 h 12.875 c 0,0 1.10333,-144.564 6.375,-189.791 5.10843,1.20032 10.4661,1.72107 16.0625,1.7016 4.53619,19.2266 8.96875,43.0248 8.96875,62.7384 0,40.334 -1.40625,128.218 -1.40625,128.218 h 12.8438 c 0,0 1.2273,-155.757 7.03125,-194.486 49.1975,-10.9722 109.579,-43.2742 165.375,-32.2988 21.0702,40.5566 30.0646,57.3156 43.3125,75.5319 15.7143,21.6075 -37.1429,51.8536 -40,84.9852 -2.85718,33.1315 -4.28125,61.2169 -4.28125,61.2169 l 14.2812,1.4495 c 0,0 -5.72321,-51.1424 18.5625,-82.8334 24.2857,-31.6911 48.5625,-51.8671 48.5625,-51.8671 0,0 -25.692,-74.8926 -21.4062,-93.6192 1.41254,-6.172 4.04511,-14.5326 6.96875,-22.9715 15.7787,-25.5012 22.261,-62.1895 1.59375,-96.5811 -1.18323,-1.96893 -2.50488,-3.78839 -3.9375,-5.48291 7.80627,-3.48395 16.5192,-7.79614 22.5,-11.8166 12.8571,-8.64301 17.1562,-20.167 17.1562,-20.167 0,0 -31.4464,7.20703 -12.875,-4.31702 18.5714,-11.524 27.1562,-30.2505 27.1562,-30.2505 0,0 -20.0045,1.45401 -35.7188,7.216 -15.7143,5.76202 -22.8438,20.1671 -22.8438,20.1671 l 7.125,-21.6165 c 0,0 -18.567,7.207 -24.2812,25.9335 -2.0249,6.63583 -2.05859,13.7898 -1.28125,20.2931 -68.6397,-21.6516 -218.189,49.9987 -248.719,22.9085 -35.7143,-31.6911 -24.2812,-234.788 -24.2812,-234.788 z "/>
<path style="fill:url(#linearGradient3010)" id="path2846" d="m 190.6716,422.179 c 0,0 -15.1064,0.091949 -19.6237,36.5447 -4.51737,36.4527 24.1859,39.08 32.8606,23.7151 8.67473,-15.3648 3.94379,-34.1998 15.004,-43.3438 11.0602,-9.14404 -29.348,-18.8035 -28.2408,-16.916 z "/>
<g style="stroke-width:.761">
<path style="fill:none;stroke:#782121" id="path2866" d="m 192.9333,441.7727 c -9.78661,7.12717 -9.78661,12.0613 -9.78661,25.7673 0,13.7061 3.80589,18.6402 3.80589,18.6402"/>
<path style="fill:#d38d5f;stroke:#a05a2c" id="path2828" d="m 244.2756,171.2667 c -21.3949,0.074417 -41.4238,8.11557 -52.9734,26.504 -10.7092,17.0506 -14.191,30.9368 -14.1532,42.7663 -3.86041,9.55182 -12.1181,27.1045 -25.8088,42.5023 -19.9916,22.4846 -53.8226,42.6536 -56.8982,70.5655 -3.07563,27.9119 2.30733,44.9729 2.30733,44.9729 0,0 37.6535,-42.6489 63.7964,-82.966 12.7253,-19.6248 17.9964,-39.7874 19.862,-55.2387 7.45445,23.9362 22.6882,39.2531 -9.84776,62.2185 -53.8236,37.9912 -24.737,140.049 52.2836,126.38 96.1135,-17.0572 39.5192,-104.608 79.9715,-145.76 23.516,-23.923 22.1123,-45.8658 19.912,-65.4967 9.22366,14.6292 18.0909,36.1964 22.381,68.5909 4.6084,34.7976 43.0067,89.8978 43.0067,89.8978 0,0 2.30734,-17.4023 2.30734,-60.8993 0,-37.9962 -57.3258,-99.5321 -70.0744,-114.691 -11.9745,-45.7003 -36.82,-45.2655 -76.0722,-49.3461 z "/>
</g>
<path style="fill:#782121" id="path2830" d="m 165.9399,435.0144 c 0,0 11.4126,-7.30524 -8.45799,-37.9912 -16.4563,-25.4132 88.1873,-23.5351 68.4328,4.65201 -16.3136,23.2775 -16.6212,32.5799 2.30672,45.7445 4.05284,2.81876 -19.2227,5.42728 -34.6009,1.55063 -17.4623,-4.40201 -27.6807,-13.9559 -27.6807,-13.9559 z "/>
<g style="fill:#501616">
<path id="path2832" d="m 204.1471,269.6348 c 2.01416,-5.14139 5.647,-5.90671 8.11415,-1.70935 2.46716,4.19736 2.8344,11.7679 0.820251,16.9093 -2.01416,5.14139 -5.647,5.90668 -8.11417,1.70932 -1.91484,-3.25769 -2.62041,-8.69626 -1.75412,-13.5209"/>
<path id="path2834" d="m 238.748,270.4102 c 2.01415,-5.14139 5.64699,-5.90671 8.11414,-1.70932 2.46716,4.19736 2.8344,11.7679 0.820251,16.9093 -2.01415,5.14136 -5.64699,5.90668 -8.11417,1.70932 -1.91484,-3.25772 -2.62041,-8.69629 -1.75412,-13.5209"/>
</g>
<g style="fill:#782121">
<path id="path2842" d="m 315.8896,220.314 c 0,0 -5.38236,9.30396 -0.768921,16.2819 4.61346,6.97797 17.6849,-0.775299 17.6849,-0.775299 0,0 29.9874,-37.9912 39.2143,-43.4185 9.2269,-5.42731 22.2983,-11.63 35.3698,-0.775345 13.0714,10.8546 39.9832,-12.4053 39.9832,-12.4053 l -8.458,-9.304 c 0,0 3.07565,16.2819 -17.6849,10.0793 -20.7605,-6.20265 -18.4538,-26.3612 13.8403,-36.4405 32.2942,-10.0793 26.9118,6.20265 51.5168,4.65199 24.6051,-1.55067 29.2185,-21.7092 29.2185,-21.7092 l -9.9958,-4.652 c 0,0 4.61343,12.4053 -10.7647,12.4053 -15.3781,0 -33.063,-10.8546 -49.2101,-10.0793 -16.1471,0.775314 -39.2143,3.87664 -52.2857,17.8326 -13.0714,13.9559 -26.9118,-22.4846 3.84454,-42.6431 30.7563,-20.1586 16.916,-62.0264 16.916,-62.0264 l -17.6849,1.5507 c 0,0 17.6849,14.7313 3.07565,35.6652 -14.6093,20.9339 -30.7563,-11.63 -30.7563,-11.63 l -9.9958,10.0793 c 0,0 29.2185,8.52863 16.1471,27.9119 -13.0714,19.3832 -9.2269,36.4405 -8.45801,54.2731 0.768921,17.8326 -49.2101,65.1277 -50.7479,65.1277 z " transform="matrix(1 0 0 1 0 0) matrix(1 0 0 1 0 0) matrix(1 0 0 1 0 0) matrix(1 0 0 1 0 0)"/>
<path id="path2844" d="m 185.2551,223.3802 l -46.1345,-51.1718 c 0,0 -12.3025,-6.97795 -31.5252,-3.87666 -19.2227,3.10136 -39.9832,-14.7312 -39.9832,-14.7312 0,0 -1.53782,-4.65196 4.61344,-8.52861 6.15128,-3.87666 6.15128,-3.10135 6.15128,-3.10135 0,0 1.53781,10.0793 18.4538,13.1806 16.916,3.10132 19.2227,-3.87666 19.2227,-3.87666 0,0 -6.92017,-17.0572 -23.8362,-28.6872 -16.916,-11.6299 -20.7605,-34.1145 -20.7605,-49.6211 0,-15.5066 9.2269,-32.5639 9.2269,-32.5639 0,0 3.07563,-6.20263 9.22689,-0.77533 6.15128,5.42731 4.61346,6.20264 4.61346,6.20264 0,0 -9.2269,3.87665 -9.2269,24.0352 0,20.1586 4.61343,35.6652 10.7647,41.0925 6.15126,5.42731 22.2983,8.52863 22.2983,8.52863 0,0 -3.84455,-39.5418 3.84454,-55.8237 7.68909,-16.2819 9.2269,-32.5639 3.07564,-40.3171 -6.15127,-7.75329 -19.9916,-9.30396 -19.9916,-9.30396 0,0 -2.30672,-0.775328 0.768906,-8.52863 3.07563,-7.75329 7.68909,-3.10133 7.68909,-3.10133 0,0 8.45799,0.775343 16.916,9.30397 8.45799,8.52863 13.0714,20.1586 11.5336,32.5639 -1.53781,12.4053 -7.68907,25.5859 -7.68907,40.3171 0,14.7313 23.0672,1.55067 39.2143,-19.3832 16.1471,-20.9339 9.9958,-35.6652 9.9958,-35.6652 0,0 9.99582,-7.75328 14.6093,0.775343 4.61345,8.52863 -3.07564,39.5418 -20.7605,55.0484 -17.6849,15.5066 -28.4496,13.956 -39.2143,24.0352 -10.7647,10.0793 -5.38235,32.5638 2.30673,43.4185 7.68909,10.8546 26.1429,22.4846 26.1429,22.4846 0,0 1.53781,-34.1145 6.92018,-43.4185 5.38235,-9.30395 13.0714,-12.4053 13.0714,-12.4053 0,0 14.6092,0.77533 13.8403,6.97796 -0.768906,6.20266 -0.768906,6.97797 -0.768906,6.97797 0,0 -9.22691,-2.32597 -13.8404,13.1806 -4.61343,15.5066 -6.15126,27.1366 -6.15126,27.1366 l .7689,11.6299 21.5294,24.8106 c 0,0 3.84454,17.8326 -16.916,13.1806 z "/>
</g>
<g style="fill:#28170b">
<path id="path2884" d="m 371.0819,805.805 h 14.2857 c 0,0 2.85715,19.4468 -1.42856,25.2087 -4.28571,5.76202 -6.42859,-11.524 -6.42859,-11.524 0,0 2.14288,13.6848 -5,12.2443 -7.14285,-1.44049 -0.714294,-23.7682 -1.42856,-25.929 z "/>
<path id="path2886" d="m 328.2248,805.805 h 14.2857 c 0,0 2.85715,19.4468 -1.42856,25.2087 -4.28571,5.76202 -6.42856,-11.524 -6.42856,-11.524 0,0 2.14285,13.6848 -5,12.2443 -7.14288,-1.44049 -0.714294,-23.7682 -1.42859,-25.929 z "/>
<path id="path2888" d="m 555.3677,806.0931 h 14.2857 c 0,0 2.85712,19.4468 -1.42859,25.2088 -4.28571,5.76196 -6.42853,-11.524 -6.42853,-11.524 0,0 2.14282,13.6848 -5,12.2443 -7.14288,-1.44049 -0.714294,-23.7682 -1.42859,-25.929 z "/>
<path id="path2890" d="m 496.7962,800.3311 h 14.2857 c 0,0 2.85712,19.4468 -1.42859,25.2088 -4.28571,5.76202 -6.42859,-11.524 -6.42859,-11.524 0,0 2.14288,13.6848 -5,12.2443 -7.14285,-1.44049 -0.714264,-23.7682 -1.42856,-25.929 z "/>
</g>
<g style="fill:#fff">
<path id="path2910" d="m 152.0352,820.0754 c 7.05624,-6.97241 19.7832,-8.01025 28.4265,-2.31805 8.64331,5.69214 9.92986,15.9587 2.8736,22.9312 -7.05624,6.97241 -19.7832,8.01019 -28.4265,2.31805 -6.70834,-4.41785 -9.18022,-11.7932 -6.14533,-18.3361"/>
<path id="path2920" d="m 230.7422,875.5883 c 10.055,-9.93561 28.1908,-11.4145 40.5073,-3.30322 12.3166,8.11121 14.1499,22.741 4.09482,32.6765 -10.055,9.93555 -28.1908,11.4144 -40.5073,3.3031 -9.55927,-6.29529 -13.0816,-16.8051 -8.75697,-26.1285"/>
<path id="path2924" d="m 31.7422,842.9934 c 10.055,-9.93561 28.1908,-11.4145 40.5073,-3.30322 12.3166,8.11121 14.1499,22.741 4.09483,32.6765 -10.055,9.93549 -28.1908,11.4144 -40.5073,3.3031 -9.55926,-6.29529 -13.0816,-16.8051 -8.75697,-26.1285"/>
<path id="path2928" d="m 424.2211,821.0717 c 4.63074,-4.57568 12.983,-5.25677 18.6552,-1.52124 5.67224,3.73554 6.51657,10.4731 1.8858,15.0488 -4.63074,4.57568 -12.9829,5.25677 -18.6552,1.52124 -4.4024,-2.89923 -6.0246,-7.73944 -4.03293,-12.0332"/>
<path id="path2932" d="m 266.1825,819.0568 c 7.05624,-6.97241 19.7832,-8.01025 28.4265,-2.31812 8.64331,5.6922 9.92984,15.9588 2.8736,22.9312 -7.05624,6.97235 -19.7833,8.01019 -28.4265,2.31805 -6.70834,-4.41785 -9.18024,-11.7933 -6.14533,-18.3361"/>
<path id="path2936" d="m 514.1248,874.0383 c 4.63074,-4.57574 12.983,-5.25684 18.6552,-1.52124 5.67224,3.73547 6.51654,10.4731 1.8858,15.0488 -4.63074,4.57568 -12.983,5.25671 -18.6552,1.52118 -4.4024,-2.89923 -6.0246,-7.73938 -4.03293,-12.0333"/>
<path id="path2940" d="m 611.0994,847.555 c 4.63074,-4.57574 12.983,-5.25684 18.6552,-1.52124 5.6723,3.73554 6.5166,10.4731 1.88586,15.0488 -4.63074,4.57568 -12.983,5.25671 -18.6552,1.52118 -4.40247,-2.89923 -6.02466,-7.73938 -4.03296,-12.0333"/>
<path id="path2944" d="m 698.9826,821.0717 c 4.63074,-4.57568 12.983,-5.25677 18.6552,-1.52124 5.6723,3.73554 6.5166,10.4731 1.88586,15.0488 -4.63074,4.57568 -12.983,5.25677 -18.6552,1.52124 -4.40247,-2.89923 -6.02466,-7.73944 -4.03296,-12.0332"/>
<path id="path2973" d="m 201.0204,195.0151 c 0,0 15.1523,18.1827 43.4366,21.2132 28.2843,3.03044 61.6193,-22.2233 61.6193,-22.2233 0,0 6.06091,-20.2031 -1.01016,-28.2843 -7.07108,-8.08119 -14.1421,21.2132 -56.5685,21.2132 -42.4264,0 -34.3452,-25.2538 -44.4467,-23.2335 -10.1015,2.02029 -10.1015,17.1726 -3.03046,31.3147 z "/>
</g>
<path style="fill:#ff2a2a" id="path2975" d="m 204.0508,167.741 c 3.03046,-4.04062 14.1422,-20.203 15.1523,-39.3959 1.01015,-19.1929 -1.08195,-40.1102 0.938354,-56.2727 2.02031,-16.1624 5.12256,-33.6309 29.3662,-45.7527 24.2437,-12.1218 41.4163,-9.09137 59.599,-4.04061 18.1827,5.05077 27.2741,32.3249 27.2741,52.5279 0,20.203 13.132,38.3858 5.05078,49.4975 -8.08124,11.1117 -15.1523,-50.5076 -34.3452,-58.5889 -19.1929,-8.08122 -29.2944,19.1929 -29.2944,44.4467 0,25.2538 23.2335,56.5686 23.2335,56.5686 0,0 -6.06091,18.1827 -37.3756,26.264 -31.3147,8.08121 -48.4873,-5.05078 -59.599,-25.2538 z "/>
<use x="559.127796" y="385.452164" xlink:href="#svg_40" id="svg_324" transform="matrix(0.335936 0 0 0.230294 113.684 9.08314)"/>
</g>
</svg>
